<svg width="131" height="32" fill="none" xmlns="http://www.w3.org/2000/svg"><path d="M63.57 7.4c1.66 0 2.99.54 4 1.63 1 1.07 1.5 2.48 1.5 4.23V24h-4.45V13.26c0-.61-.15-1.1-.43-1.44a1.34 1.34 0 0 0-1.11-.56h-1.41a2.2 2.2 0 0 0-1.6.69 2.95 2.95 0 0 0-.86 1.77V24h-4.45V13.29c0-.61-.14-1.1-.43-1.47a1.34 1.34 0 0 0-1.11-.56h-1.28c-.63 0-1.19.28-1.67.85a4.31 4.31 0 0 0-.92 2.23V24H44.9V7.66h4.13v1.9c.39-.66.9-1.18 1.5-1.58.64-.39 1.27-.59 1.9-.59h1.84c.78 0 1.5.21 2.13.63.65.41 1.16.99 1.54 1.73a5.63 5.63 0 0 1 1.7-1.73 4.01 4.01 0 0 1 2.13-.63h1.8Zm15.09 16.86c-1.38 0-2.6-.26-3.67-.78a6.07 6.07 0 0 1-2.46-2.3 6.69 6.69 0 0 1-.85-3.4v-3.84c0-1.28.3-2.42.88-3.4a6 6 0 0 1 2.46-2.33 7.96 7.96 0 0 1 3.67-.82h2.95c1.37 0 2.58.28 3.63.82a5.96 5.96 0 0 1 2.5 2.33c.58.98.88 2.12.88 3.4v3.84a6.5 6.5 0 0 1-.89 3.4 6.02 6.02 0 0 1-2.49 2.3 8.1 8.1 0 0 1-3.67.78h-2.94Zm2.88-3.83c.8 0 1.45-.27 1.93-.82.48-.57.72-1.3.72-2.2v-3.17c0-.9-.24-1.62-.72-2.16a2.37 2.37 0 0 0-1.9-.85h-2.82c-.78 0-1.42.28-1.9.85a3.15 3.15 0 0 0-.72 2.16v3.18c0 .9.24 1.62.72 2.2.48.54 1.1.81 1.87.81h2.82Zm13.34-4.72-6-8.05h4.98l3.6 4.84 3.61-4.84h4.98l-6 8.05 6.2 8.29h-4.98l-3.8-5.11-3.8 5.11h-4.98l6.19-8.29Zm17.54 8.55c-1.7 0-3.08-.42-4.13-1.28a4.13 4.13 0 0 1-1.57-3.37V18.4c0-1.38.55-2.48 1.64-3.3a6.84 6.84 0 0 1 4.32-1.29h2a8.74 8.74 0 0 1 3.64.85v-1.7c0-.54-.19-.98-.56-1.3a1.9 1.9 0 0 0-1.4-.53h-2.83c-.6 0-1.1.14-1.47.42-.37.29-.56.67-.56 1.15h-4.32c0-1.6.58-2.87 1.74-3.83a6.97 6.97 0 0 1 4.61-1.48h2.82c1.92 0 3.47.52 4.65 1.54a5.02 5.02 0 0 1 1.77 4.03V24h-4.13v-1.97a6.09 6.09 0 0 1-1.93 1.64c-.76.4-1.52.6-2.26.6h-2.03Zm2.36-3.4c.8 0 1.53-.21 2.16-.63.64-.41 1.1-.97 1.38-1.67v-.55a4.04 4.04 0 0 0-1.48-.63 8.08 8.08 0 0 0-1.96-.23h-2.06c-.53 0-.95.14-1.28.4-.33.26-.5.6-.5 1.05v.85c0 .41.18.75.53 1.01.37.26.85.4 1.44.4h1.77Zm13.3 3.47c-.81 0-1.47-.24-1.97-.72a2.73 2.73 0 0 1-.72-1.97c0-.8.24-1.45.72-1.93.5-.5 1.16-.75 1.97-.75.8 0 1.45.25 1.93.75.5.48.75 1.12.75 1.93 0 .81-.25 1.46-.75 1.97-.48.48-1.13.72-1.93.72Z" fill="#161513"/><path fill-rule="evenodd" clip-rule="evenodd" d="M17.14 0h-2.28v10.12L11.06.74l-2.11.85 3.89 9.63-7.35-7.34-1.61 1.61 7.03 7.04L1.8 8.55l-.92 2.1 9.65 4.2H0v2.3h10.53l-9.65 4.2.92 2.1 9.11-3.98-7.03 7.04 1.61 1.61 7.35-7.34-3.9 9.63 2.13.85 3.79-9.38V32h2.28V21.88l3.8 9.38 2.11-.85-3.89-9.63 7.35 7.34 1.61-1.61-7.03-7.04 9.11 3.98.92-2.1-9.65-4.2H32v-2.3H21.47l9.65-4.2-.92-2.1-9.11 3.98 7.03-7.04-1.61-1.61-7.35 7.34 3.9-9.63-2.13-.85-3.79 9.38V0Z" fill="#E94D35"/></svg>