<svg width="32" height="32" fill="none" xmlns="http://www.w3.org/2000/svg"><path fill-rule="evenodd" clip-rule="evenodd" d="M17.14 0h-2.28v10.12L11.06.74l-2.11.85 3.89 9.63-7.35-7.34-1.61 1.61 7.03 7.04L1.8 8.55l-.92 2.1 9.65 4.2H0v2.3h10.53l-9.65 4.2.92 2.1 9.11-3.98-7.03 7.04 1.61 1.61 7.35-7.34-3.9 9.63 2.13.85 3.79-9.38V32h2.28V21.88l3.8 9.38 2.11-.85-3.89-9.63 7.35 7.34 1.61-1.61-7.03-7.04 9.11 3.98.92-2.1-9.65-4.2H32v-2.3H21.47l9.65-4.2-.92-2.1-9.11 3.98 7.03-7.04-1.61-1.61-7.35 7.34 3.9-9.63-2.13-.85-3.79 9.38V0Z" fill="#E94D35"/></svg>